<svg width="59" height="50" viewBox="0 0 59 50" fill="none" xmlns="http://www.w3.org/2000/svg">
<path fill-rule="evenodd" clip-rule="evenodd" d="M9.93565 49.2968H14.6115V44.3786H7.35914V49.2968H9.93565ZM58.6032 6.71246C58.6032 3.40953 55.8358 0.732666 52.305 0.732666H28.2575C24.7268 0.732666 21.9594 3.40953 21.9594 6.71246V43.2716C21.9594 46.5745 24.7268 49.2514 28.2575 49.2514H52.305C55.8358 49.2514 58.6032 46.5745 58.6032 43.2716V6.71246ZM53.4501 6.71246V43.2716C53.4501 43.8614 52.973 44.3422 52.305 44.3422H28.2575C27.5896 44.3422 27.1124 43.8614 27.1124 43.2716V6.71246C27.1124 6.12265 27.5896 5.64166 28.2575 5.64166H52.305C52.973 5.64166 53.4501 6.12265 53.4501 6.71246ZM40.2813 25.0783C44.3846 25.0783 47.6291 28.2178 47.6291 32.0923C47.6291 35.9669 44.3846 39.1156 40.2813 39.1156C36.1779 39.1156 32.9334 35.9669 32.9334 32.0923C32.9334 28.2178 36.1779 25.0783 40.2813 25.0783ZM12.035 0.732666H6.5003C2.96952 0.732666 0.202148 3.39138 0.202148 6.66709V29.2794C0.202148 32.5551 2.96952 35.2138 6.5003 35.2138H14.6115V30.3048H6.5003C5.83231 30.3048 5.35518 29.842 5.35518 29.2794V6.66709C5.35518 6.1045 5.83231 5.64166 6.5003 5.64166H14.6115V0.732666H12.035ZM40.2813 10.9409C42.2852 10.9409 44.0029 12.5107 44.0029 14.4434C44.0029 16.3853 42.2852 17.9552 40.2813 17.9552C38.2773 17.9552 36.5596 16.3853 36.5596 14.4434C36.5596 12.5107 38.2773 10.9409 40.2813 10.9409Z" fill="white"/>
</svg>
