<svg width="57" height="55" viewBox="0 0 57 55" fill="none" xmlns="http://www.w3.org/2000/svg">
<path fill-rule="evenodd" clip-rule="evenodd" d="M25.4792 15.0376L2.53881 39.3014C-0.896541 42.922 -0.734167 48.466 2.8825 51.9051C6.5087 55.3532 12.3393 55.4985 16.1468 52.2409L41.6637 30.427C45.5762 30.4542 49.4506 29.0931 52.3134 26.3437C58.2299 20.736 58.039 11.3626 51.7409 5.41914C45.5286 -0.515253 35.6707 -0.687658 29.7734 4.92007C26.882 7.66949 25.4506 11.3172 25.4792 15.0376ZM37.3218 27.5324L12.692 48.5931C10.9267 50.0994 8.21654 50.0359 6.53703 48.4298C4.85753 46.8328 4.79118 44.2649 6.37526 42.5862C12.7402 35.8623 24.1056 23.8393 28.5239 19.1662L37.3218 27.5324ZM42.4748 25.4907L30.671 14.2663C30.8237 12.0976 31.7301 10.0105 33.4287 8.3953C37.3698 4.64774 43.9445 4.92903 48.1147 8.89437C52.3134 12.8597 52.5997 19.1208 48.6872 22.8683C46.9505 24.4744 44.7555 25.3455 42.4748 25.4907Z" fill="white"/>
</svg>
