<svg width="49" height="50" viewBox="0 0 49 50" fill="none" xmlns="http://www.w3.org/2000/svg">
<path fill-rule="evenodd" clip-rule="evenodd" d="M11.145 28.8432L11.145 47.4046C11.145 48.3233 10.4307 49.0697 9.44863 49.0697L2.48473 49.0697C1.59192 49.0697 0.877673 48.3233 0.877674 47.4046L0.877677 2.59642C0.877678 1.67772 1.59192 0.932261 2.48473 0.932261L9.44863 0.932262C10.4307 0.932262 11.145 1.67772 11.145 2.59642L11.145 21.1579L45.0717 1.56168C45.8752 1.10009 46.8573 1.1001 47.6608 1.56168C48.4643 2.02326 49 2.87585 49 3.79901C49 13.5199 49 36.4811 49 46.2029C49 47.1251 48.4643 47.9778 47.6608 48.4393C46.8573 48.9009 45.8752 48.901 45.0716 48.4403L11.145 28.8432Z" fill="white"/>
</svg>
