<svg width="59" height="50" viewBox="0 0 59 50" fill="none" xmlns="http://www.w3.org/2000/svg">
<path fill-rule="evenodd" clip-rule="evenodd" d="M47.2474 42.0835C47.3524 42.0835 47.4478 42.138 47.486 42.2378C47.5337 42.3286 47.5057 42.4375 47.4293 42.51C46.6373 43.2632 45.0526 44.7695 45.0526 44.7695C43.9647 45.8039 43.9647 47.4825 45.0526 48.517C46.1405 49.5514 47.8966 49.5514 48.9845 48.517C48.9845 48.517 56.208 41.6571 58.126 39.8242C58.2501 39.7062 58.3169 39.5428 58.3169 39.3795C58.3169 39.2162 58.2501 39.0528 58.126 38.9349C56.208 37.1019 48.9845 30.2419 48.9845 30.2419C47.8966 29.2075 46.1405 29.2075 45.0526 30.2419C43.9647 31.2763 43.9647 32.9551 45.0526 33.9895C45.0526 33.9895 46.7227 35.5774 47.5434 36.3578C47.6197 36.4304 47.6485 36.5393 47.6008 36.63C47.5626 36.7298 47.4672 36.7844 47.3622 36.7844C45.9117 36.7844 42.5149 36.7752 42.5149 36.7752C41.2361 36.7752 39.9568 36.1854 38.6113 35.3233C36.9032 34.2163 35.1761 32.6557 33.4203 30.8409C33.4203 30.8409 32.3898 29.7792 31.8554 29.2257C31.7695 29.1349 31.655 29.0805 31.5214 29.0805C31.3974 29.0715 31.2733 29.1167 31.1874 29.1984C30.4145 29.8789 28.5631 31.4942 27.7901 32.1747C27.6947 32.2564 27.6373 32.3653 27.6373 32.4833C27.6277 32.6012 27.6759 32.7192 27.7618 32.8099C28.2962 33.3634 29.3266 34.4252 29.3266 34.4252C33.8021 39.0438 38.3637 42.0654 42.5052 42.0654C42.5052 42.0654 45.8256 42.0744 47.2474 42.0835ZM47.4293 7.57519C47.5057 7.64778 47.5337 7.74759 47.486 7.8474C47.4478 7.93814 47.3524 8.00159 47.2474 8.00159C45.8256 8.00159 42.5052 8.01063 42.5052 8.01063C39.5947 8.01063 36.4934 9.4172 33.4016 11.8853C29.5178 14.9886 25.4902 19.8251 21.4823 24.6797C17.7225 29.2166 13.9919 33.7808 10.3561 36.6844C8.43805 38.2179 6.63389 39.3251 4.83033 39.3251C4.83033 39.3251 1.85303 39.3251 0.679281 39.3251C0.412087 39.3251 0.202148 39.5246 0.202148 39.7696C0.202148 40.7768 0.202148 43.1633 0.202148 44.1614C0.202148 44.2885 0.250458 44.3973 0.336342 44.4881C0.431768 44.5697 0.545684 44.6151 0.679281 44.6151C1.47132 44.6151 2.9889 44.6151 2.9889 44.6151H4.83033C7.75038 44.6151 10.8428 43.2178 13.9346 40.7406C17.8185 37.6373 21.8455 32.8009 25.8629 27.9463C29.6132 23.4093 33.3533 18.845 36.9891 15.9413C38.9071 14.4078 40.7016 13.3008 42.5052 13.3008H42.5149C42.5149 13.3008 45.9117 13.2918 47.3622 13.2918C47.4672 13.2918 47.5626 13.3552 47.6008 13.446C47.6485 13.5367 47.6197 13.6456 47.5434 13.7182C46.7227 14.5076 45.0526 16.0957 45.0526 16.0957C43.9647 17.1301 43.9647 18.7997 45.0526 19.8341C46.1405 20.8685 47.8966 20.8685 48.9845 19.8341C48.9845 19.8341 56.208 12.9741 58.126 11.1412C58.2501 11.0232 58.3169 10.8691 58.3169 10.6967C58.3169 10.5333 58.2501 10.37 58.126 10.252C56.208 8.42814 48.9845 1.55906 48.9845 1.55906C47.8966 0.533699 46.1405 0.533699 45.0526 1.55906C43.9647 2.59349 43.9647 4.27225 45.0526 5.30669C45.0526 5.30669 46.6373 6.81297 47.4293 7.57519ZM2.9889 10.7601H4.83033C6.4335 10.7601 8.03711 11.6493 9.72616 12.9106C11.8637 14.4985 14.03 16.7127 16.2249 19.1809C16.2249 19.1809 17.1976 20.2788 17.7129 20.8595C17.7893 20.9503 17.9139 21.0047 18.038 21.0137C18.162 21.0319 18.2855 20.9865 18.3809 20.9139C19.1825 20.2697 21.1006 18.727 21.9117 18.0828C22.0071 18.0011 22.0647 17.8923 22.0742 17.7744C22.0837 17.6564 22.0454 17.5383 21.9691 17.4476C21.4538 16.8668 20.4713 15.7689 20.4713 15.7689C17.4845 12.4024 14.5069 9.48973 11.625 7.684C9.32522 6.24124 7.03469 5.46087 4.83033 5.46087H0.202148V10.7601H2.9889Z" fill="white"/>
</svg>
